Coordinates
version=1
nRows=5
nColumns=114
inDegrees=yes

Units are S.I. units (second, meters, Newtons, ...)
If the header above contains a line with 'inDegrees', this indicates whether rotational values are in degrees (yes) or radians (no).

endheader 
time	pelvis_tilt	pelvis_list	pelvis_rotation	pelvis_tx	pelvis_ty	pelvis_tz	hip_flexion_l	hip_adduction_l	hip_rotation_l	hip_flexion_r	hip_adduction_r	hip_rotation_r	knee_angle_l	knee_angle_r	ankle_angle_l	ankle_angle_r	subtalar_angle_l	subtalar_angle_r	mtp_angle_l	mtp_angle_r	lumbar_extension	lumbar_bending	lumbar_rotation	arm_flex_l	arm_add_l	arm_rot_l	arm_flex_r	arm_add_r	arm_rot_r	elbow_flex_l	elbow_flex_r	pro_sup_l	pro_sup_r	addbrev_l/activation	addlong_l/activation	addmagDist_l/activation	addmagIsch_l/activation	addmagMid_l/activation	addmagProx_l/activation	bflh_l/activation	bfsh_l/activation	edl_l/activation	ehl_l/activation	fdl_l/activation	fhl_l/activation	gaslat_l/activation	gasmed_l/activation	glmax1_l/activation	glmax2_l/activation	glmax3_l/activation	glmed1_l/activation	glmed2_l/activation	glmed3_l/activation	glmin1_l/activation	glmin2_l/activation	glmin3_l/activation	grac_l/activation	iliacus_l/activation	perbrev_l/activation	perlong_l/activation	piri_l/activation	psoas_l/activation	recfem_l/activation	sart_l/activation	semimem_l/activation	semiten_l/activation	soleus_l/activation	tfl_l/activation	tibant_l/activation	tibpost_l/activation	vasint_l/activation	vaslat_l/activation	vasmed_l/activation	addbrev_r/activation	addlong_r/activation	addmagDist_r/activation	addmagIsch_r/activation	addmagMid_r/activation	addmagProx_r/activation	bflh_r/activation	bfsh_r/activation	edl_r/activation	ehl_r/activation	fdl_r/activation	fhl_r/activation	gaslat_r/activation	gasmed_r/activation	glmax1_r/activation	glmax2_r/activation	glmax3_r/activation	glmed1_r/activation	glmed2_r/activation	glmed3_r/activation	glmin1_r/activation	glmin2_r/activation	glmin3_r/activation	grac_r/activation	iliacus_r/activation	perbrev_r/activation	perlong_r/activation	piri_r/activation	psoas_r/activation	recfem_r/activation	sart_r/activation	semimem_r/activation	semiten_r/activation	soleus_r/activation	tfl_r/activation	tibant_r/activation	tibpost_r/activation	vasint_r/activation	vaslat_r/activation	vasmed_r/activation	
          0.00000000	          0.22409417	         -2.72123210	         -0.04837713	          1.06939623	          0.89575102	         -0.26560076	          2.30447689	         -9.99190608	        -15.94535611	          5.93366507	         -5.39585156	        -17.47732600	          6.43112705	         10.83403973	          9.14978148	          0.59498690	          0.73287689	        -11.04402324	        -44.99983349	        -44.99981453	         -0.58096687	          1.99795527	         -1.70905730	          1.02267974	        -10.42985620	         22.74047778	          2.38730238	        -12.77491128	         15.38785656	         28.24010450	         27.28551611	         67.03802455	         79.33210031	          0.09918500	          0.23769772	          0.01018877	          0.01005462	          0.03135977	          0.06118210	          0.01001575	          0.01021739	          0.01013213	          0.01029906	          0.01264976	          0.01913312	          0.02260435	          0.03927839	          0.01002499	          0.01001435	          0.01002543	          0.01002374	          0.01002956	          0.01002781	          0.01009061	          0.01008295	          0.01008605	          0.02657378	          0.10766595	          0.01013450	          0.01007695	          0.01018622	          0.11446476	          0.26342979	          0.02564385	          0.01000973	          0.01003743	          0.02226966	          0.01022393	          0.01015932	          0.10077476	          0.01040196	          0.01025791	          0.01035811	          0.01040004	          0.01010373	          0.01600982	          0.01780312	          0.01504844	          0.01061794	          0.03576633	          0.01036357	          0.01005940	          0.01026232	          0.01568162	          0.02389932	          0.01555755	          0.01511845	          0.01686704	          0.02277756	          0.02984341	          0.01047841	          0.01428503	          0.01516773	          0.01024704	          0.01029061	          0.01040643	          0.01177752	          0.01005724	          0.01005785	          0.01002787	          0.01088151	          0.01006290	          0.01002348	          0.01010814	          0.04431623	          0.01750384	          0.02100217	          0.01006320	          0.01181310	          0.10607715	          0.01318285	          0.01824850	          0.01499040	
          0.02000000	         -0.93107619	         -2.30370695	         -0.17103314	          1.07236942	          0.89664180	         -0.26512295	          3.25076469	         -9.60352095	        -16.65926537	          6.53326557	         -5.85751472	        -17.98932629	          6.12765663	         10.14710078	          8.55567563	          1.86724096	          1.16894511	         -9.22719263	        -34.95894409	        -34.98368092	         -0.09698740	          1.51396416	         -1.39892305	          1.50454029	        -10.71222102	         22.56029308	          2.09922243	        -12.52673042	         13.97169384	         28.12916916	         28.17803861	         67.34481681	         79.12647969	          0.06619625	          0.15848813	          0.01006011	          0.01003650	          0.02096979	          0.04088749	          0.01001777	          0.01646037	          0.01020510	          0.01070007	          0.01148562	          0.01300550	          0.03812018	          0.02999314	          0.01003005	          0.01001679	          0.01002022	          0.01004788	          0.01004859	          0.01004111	          0.01025552	          0.01020475	          0.01016668	          0.01794315	          0.07557445	          0.01011348	          0.01006270	          0.01023906	          0.07671625	          0.17563988	          0.04301752	          0.01001266	          0.01004396	          0.01487003	          0.04155485	          0.04799587	          0.06748918	          0.01004522	          0.01001638	          0.01003249	          0.01031270	          0.01092099	          0.01072115	          0.01190153	          0.01019216	          0.01028507	          0.02385701	          0.01043664	          0.01065696	          0.01167063	          0.01074820	          0.01599987	          0.01040688	          0.01010433	          0.01128994	          0.01520675	          0.01991471	          0.01040270	          0.01026548	          0.01029500	          0.01056759	          0.01052380	          0.01044212	          0.01023453	          0.01417122	          0.01014211	          0.01007618	          0.01035044	          0.01361783	          0.02474254	          0.01141496	          0.02955280	          0.01170416	          0.01400871	          0.01459392	          0.04247563	          0.07073027	          0.01027376	          0.01222947	          0.01029305	
          0.04000000	         -1.85363772	         -1.94457583	         -0.24330050	          1.07508829	          0.89803031	         -0.26470204	          4.01108182	         -9.28067805	        -17.14284217	          6.95723148	         -6.24773110	        -18.46595349	          5.92454912	          9.56606602	          8.04020174	          2.97023262	          1.50757311	         -7.69626369	        -27.15687860	        -27.20661561	          0.11218534	          1.11822780	         -1.07364722	          2.04520227	        -11.02002592	         22.52985061	          1.91966370	        -12.36228401	         12.72004402	         28.11782517	         29.01988852	         67.65332500	         78.93992501	          0.06490423	          0.13997072	          0.01009711	          0.01004822	          0.01632159	          0.03818712	          0.01001896	          0.01137164	          0.01015729	          0.01059361	          0.01686796	          0.03245580	          0.02545759	          0.02002957	          0.01003132	          0.01001777	          0.01002477	          0.01003962	          0.01004369	          0.01003847	          0.01016726	          0.01014090	          0.01012762	          0.01535384	          0.07491091	          0.01009275	          0.01005107	          0.01020582	          0.07867898	          0.14819087	          0.03032995	          0.01001267	          0.01004422	          0.01013328	          0.02780979	          0.03920228	          0.06524994	          0.01013328	          0.01005643	          0.01010150	          0.01666678	          0.02699145	          0.01470865	          0.01336050	          0.01617888	          0.01272333	          0.01906818	          0.01039541	          0.01041357	          0.01052250	          0.01041961	          0.01086183	          0.01015038	          0.01010005	          0.01027415	          0.01033383	          0.01458543	          0.01014827	          0.01021277	          0.01022631	          0.01026084	          0.01025758	          0.01028228	          0.01127051	          0.01035483	          0.01020447	          0.01012343	          0.01033609	          0.01042638	          0.01652011	          0.01029545	          0.02069959	          0.01092399	          0.01005017	          0.01018171	          0.02838176	          0.05645405	          0.01059997	          0.01199256	          0.01074069	
          0.06000000	         -2.56083756	         -1.64854830	         -0.27206030	          1.07755986	          0.89887396	         -0.26434601	          4.60746207	         -9.02745467	        -17.41889093	          7.22564429	         -6.56574807	        -18.90077397	          5.82936450	          9.08975872	          7.60015539	          3.89630602	          1.74383013	         -6.44997474	        -21.09590704	        -21.16878982	          0.04555484	          0.80751386	         -0.74239598	          2.64812306	        -11.35291249	         22.63286708	          1.86509369	        -12.27484545	         11.65071947	         28.19334417	         29.80378887	         67.95608101	         78.77584366	          0.06287802	          0.13231294	          0.01010244	          0.01005204	          0.01757775	          0.03655131	          0.01001992	          0.01041725	          0.01013338	          0.01049547	          0.01390850	          0.02176795	          0.01711951	          0.01344312	          0.01003434	          0.01001955	          0.01002704	          0.01004385	          0.01004788	          0.01004196	          0.01017955	          0.01015103	          0.01013593	          0.01380160	          0.06710767	          0.01008902	          0.01004912	          0.01020410	          0.07051661	          0.12984596	          0.02615771	          0.01001332	          0.01004583	          0.01161402	          0.02125941	          0.04135024	          0.06719254	          0.01024732	          0.01013743	          0.01020733	          0.02321563	          0.04070438	          0.01822507	          0.01471742	          0.02118556	          0.01575346	          0.01333235	          0.01039336	          0.01017948	          0.01053290	          0.01360154	          0.02533203	          0.01046946	          0.01017964	          0.01025490	          0.01019274	          0.01512557	          0.01012116	          0.01016518	          0.01017664	          0.01024039	          0.01023250	          0.01025285	          0.01228263	          0.01044529	          0.01009286	          0.01004732	          0.01030944	          0.01082942	          0.01110390	          0.01034216	          0.01396728	          0.01086901	          0.01043428	          0.01020879	          0.03499205	          0.04693514	          0.01063247	          0.01397319	          0.01101006	
          0.08000000	         -3.07299910	         -1.41623261	         -0.25963463	          1.07977625	          0.89903820	         -0.26404827	          5.06797327	         -8.84626758	        -17.51523412	          7.36077826	         -6.81462806	        -19.28459271	          5.84877036	          8.71594524	          7.23135504	          4.64221794	          1.87400767	         -5.48271519	        -16.39552382	        -16.48842000	         -0.28437386	          0.57999008	         -0.41566097	          3.31617506	        -11.70770017	         22.85268157	          1.94918487	        -12.26035230	         10.78033761	         28.34519636	         30.51849862	         68.24591061	         78.63734143	          0.05650437	          0.12271372	          0.01012887	          0.01006386	          0.01834804	          0.03333041	          0.01002470	          0.01047603	          0.01014782	          0.01047728	          0.01774247	          0.03608416	          0.01173799	          0.01035637	          0.01004030	          0.01002315	          0.01003287	          0.01004965	          0.01005451	          0.01004799	          0.01018761	          0.01015914	          0.01014555	          0.01356502	          0.05650926	          0.01009995	          0.01005628	          0.01020672	          0.06067124	          0.11220099	          0.02164156	          0.01001663	          0.01005599	          0.01187157	          0.01574643	          0.03160371	          0.07253855	          0.01025675	          0.01015096	          0.01022052	          0.02954157	          0.05535622	          0.01596008	          0.01134258	          0.02306789	          0.01889393	          0.01023657	          0.01038135	          0.01023230	          0.01064640	          0.01251642	          0.01711464	          0.01022320	          0.01010519	          0.01016146	          0.01011016	          0.01053382	          0.01010218	          0.01013320	          0.01013512	          0.01022471	          0.01021175	          0.01022556	          0.01277649	          0.01138610	          0.01010498	          0.01005690	          0.01028335	          0.01418546	          0.01084114	          0.01037545	          0.01013388	          0.01033899	          0.01009502	          0.01021858	          0.03330586	          0.05104507	          0.01117771	          0.02044237	          0.01248418	
